<svg width="48" height="48" viewBox="0 0 48 48" fill="none" xmlns="http://www.w3.org/2000/svg">
<circle cx="24.0002" cy="24" r="21.9" stroke="#003BFF" strokeWidth="1.8"/>
<path d="M25 24.774L30.576 30.35C30.7627 30.5313 30.856 30.7573 30.856 31.028C30.856 31.2987 30.7627 31.532 30.576 31.728C30.3813 31.948 30.144 32.0513 29.864 32.038C29.584 32.0247 29.346 31.9213 29.15 31.728L23.484 26.062C23.3107 25.8873 23.1867 25.7047 23.112 25.514C23.0373 25.3233 23 25.1253 23 24.92V16.846C23 16.562 23.096 16.3247 23.288 16.134C23.48 15.9433 23.718 15.8473 24.002 15.846C24.286 15.8447 24.5233 15.9407 24.714 16.134C24.9047 16.3273 25 16.5647 25 16.846V24.774ZM24 12C23.716 12 23.478 11.904 23.286 11.712C23.094 11.52 22.9987 11.2827 23 11V8H25V11C25 11.284 24.904 11.5213 24.712 11.712C24.52 11.9027 24.282 11.9987 23.998 12M36 24C36 23.716 36.096 23.478 36.288 23.286C36.48 23.094 36.7173 22.9987 37 23H40V25H37C36.716 25 36.4787 24.904 36.288 24.712C36.0973 24.52 36.0013 24.282 36 23.998M24 36C24.2853 36 24.5233 36.096 24.714 36.288C24.9047 36.48 25 36.7173 25 37V40H23V37C23 36.716 23.096 36.4787 23.288 36.288C23.48 36.0973 23.718 36.0013 24.002 36M12 24C12 24.2853 11.904 24.5233 11.712 24.714C11.52 24.9047 11.2827 25 11 25H8V23H11C11.284 23 11.5213 23.096 11.712 23.288C11.9027 23.48 11.9987 23.718 12 24.002M24.006 42C21.518 42 19.178 41.528 16.986 40.584C14.7953 39.6387 12.8893 38.356 11.268 36.736C9.64667 35.116 8.36333 33.212 7.418 31.024C6.47267 28.836 6 26.4967 6 24.006C6 21.5153 6.47267 19.1753 7.418 16.986C8.362 14.7953 9.64267 12.8893 11.26 11.268C12.8773 9.64667 14.782 8.36333 16.974 7.418C19.166 6.47267 21.506 6 23.994 6C26.482 6 28.822 6.47267 31.014 7.418C33.2047 8.362 35.1107 9.64333 36.732 11.262C38.3533 12.8807 39.6367 14.7853 40.582 16.976C41.5273 19.1667 42 21.506 42 23.994C42 26.482 41.528 28.822 40.584 31.014C39.64 33.206 38.3573 35.112 36.736 36.732C35.1147 38.352 33.2107 39.6353 31.024 40.582C28.8373 41.5287 26.498 42.0013 24.006 42ZM40 24C40 19.5333 38.45 15.75 35.35 12.65C32.25 9.55 28.4667 8 24 8C19.5333 8 15.75 9.55 12.65 12.65C9.55 15.75 8 19.5333 8 24C8 28.4667 9.55 32.25 12.65 35.35C15.75 38.45 19.5333 40 24 40C28.4667 40 32.25 38.45 35.35 35.35C38.45 32.25 40 28.4667 40 24Z" fill="#003BFF"/>
<path d="M24 12C23.716 12 23.478 11.904 23.286 11.712C23.094 11.52 22.9987 11.2827 23 11V8H25V11C25 11.284 24.904 11.5213 24.712 11.712C24.52 11.9027 24.282 11.9987 23.998 12M36 24C36 23.716 36.096 23.478 36.288 23.286C36.48 23.094 36.7173 22.9987 37 23H40V25H37C36.716 25 36.4787 24.904 36.288 24.712C36.0973 24.52 36.0013 24.282 36 23.998M24 36C24.2853 36 24.5233 36.096 24.714 36.288C24.9047 36.48 25 36.7173 25 37V40H23V37C23 36.716 23.096 36.4787 23.288 36.288C23.48 36.0973 23.718 36.0013 24.002 36M12 24C12 24.2853 11.904 24.5233 11.712 24.714C11.52 24.9047 11.2827 25 11 25H8V23H11C11.284 23 11.5213 23.096 11.712 23.288C11.9027 23.48 11.9987 23.718 12 24.002M25 24.774L30.576 30.35C30.7627 30.5313 30.856 30.7573 30.856 31.028C30.856 31.2987 30.7627 31.532 30.576 31.728C30.3813 31.948 30.144 32.0513 29.864 32.038C29.584 32.0247 29.346 31.9213 29.15 31.728L23.484 26.062C23.3107 25.8873 23.1867 25.7047 23.112 25.514C23.0373 25.3233 23 25.1253 23 24.92V16.846C23 16.562 23.096 16.3247 23.288 16.134C23.48 15.9433 23.718 15.8473 24.002 15.846C24.286 15.8447 24.5233 15.9407 24.714 16.134C24.9047 16.3273 25 16.5647 25 16.846V24.774ZM24.006 42C21.518 42 19.178 41.528 16.986 40.584C14.7953 39.6387 12.8893 38.356 11.268 36.736C9.64667 35.116 8.36333 33.212 7.418 31.024C6.47267 28.836 6 26.4967 6 24.006C6 21.5153 6.47267 19.1753 7.418 16.986C8.362 14.7953 9.64267 12.8893 11.26 11.268C12.8773 9.64667 14.782 8.36333 16.974 7.418C19.166 6.47267 21.506 6 23.994 6C26.482 6 28.822 6.47267 31.014 7.418C33.2047 8.362 35.1107 9.64333 36.732 11.262C38.3533 12.8807 39.6367 14.7853 40.582 16.976C41.5273 19.1667 42 21.506 42 23.994C42 26.482 41.528 28.822 40.584 31.014C39.64 33.206 38.3573 35.112 36.736 36.732C35.1147 38.352 33.2107 39.6353 31.024 40.582C28.8373 41.5287 26.498 42.0013 24.006 42ZM40 24C40 19.5333 38.45 15.75 35.35 12.65C32.25 9.55 28.4667 8 24 8C19.5333 8 15.75 9.55 12.65 12.65C9.55 15.75 8 19.5333 8 24C8 28.4667 9.55 32.25 12.65 35.35C15.75 38.45 19.5333 40 24 40C28.4667 40 32.25 38.45 35.35 35.35C38.45 32.25 40 28.4667 40 24Z" stroke="#003BFF" strokeWidth="0.5"/>
</svg>
