<svg width="24" height="24" viewBox="0 0 24 24" fill="none" xmlns="http://www.w3.org/2000/svg">
<path d="M15.7148 11.0557C15.5484 10.983 15.382 10.9174 15.2133 10.8564C16.3805 9.91191 17.1258 8.47051 17.1258 6.85801C17.1258 4.02207 14.8195 1.71582 11.9836 1.71582C9.14766 1.71582 6.84141 4.02207 6.84141 6.85801C6.84141 8.47285 7.58906 9.9166 8.75625 10.8588C5.14219 12.1783 2.55469 15.6518 2.55469 19.7182H4.26797C4.26797 15.4643 7.72969 12.0049 11.9813 12.0049C13.043 12.0049 14.0695 12.2158 15.0328 12.6307L15.7148 11.0557ZM11.9836 3.4291C13.875 3.4291 15.4125 4.9666 15.4125 6.85801C15.4125 8.74941 13.875 10.2869 11.9836 10.2869C10.0922 10.2869 8.55469 8.74707 8.55469 6.85801C8.55469 4.96895 10.0922 3.4291 11.9836 3.4291ZM14.3555 14.9182C14.3555 15.1572 14.4867 15.3752 14.6977 15.4854L17.6977 17.0697C17.7914 17.1189 17.8945 17.1447 17.9977 17.1447C18.1008 17.1447 18.2039 17.1189 18.2977 17.0697L21.2977 15.4854C21.5086 15.3729 21.6398 15.1549 21.6398 14.9182C21.6398 14.6814 21.5086 14.4611 21.2977 14.351L18.2977 12.7643C18.1102 12.6658 17.8852 12.6658 17.6977 12.7643L14.6977 14.351C14.4867 14.4611 14.3555 14.6791 14.3555 14.9182ZM17.9977 14.0604L19.6219 14.9182L17.9977 15.776L16.3734 14.9182L17.9977 14.0604Z" fill="#CCCCCC" stroke="#19307D" stroke-width="0.5"/>
<path d="M17.9977 17.8924L14.5524 16.0713L13.9524 17.208L17.9977 19.3455L22.0266 17.2174L21.4266 16.0807L17.9977 17.8924Z" fill="#CCCCCC" stroke="#19307D" stroke-width="0.5"/>
<path d="M17.9977 19.9545L14.5524 18.1357L13.9524 19.2701L17.9977 21.41L22.0125 19.2865L21.4125 18.1498L17.9977 19.9545Z" fill="#CCCCCC" stroke="#19307D" stroke-width="0.5"/>
</svg>
