<svg width="24" height="24" viewBox="0 0 24 24" fill="none" xmlns="http://www.w3.org/2000/svg">
<path d="M16.44 21.348L16.993 20.658C17.478 20.051 18.509 20.1 18.918 20.748C19.411 21.529 20.629 21.374 20.967 20.656C20.985 20.619 20.941 20.712 20.978 20.389C21.016 20.066 21 19.992 20.968 19.845L19.046 10.765C18.562 8.482 18.321 7.341 17.489 6.67C16.66 6 15.485 6 13.14 6H10.863C8.51601 6 7.34301 6 6.51201 6.67C5.68001 7.34 5.43901 8.482 4.95501 10.764L3.03201 19.844C3.00101 19.992 2.98501 20.066 3.02201 20.389C3.06001 20.712 3.01701 20.619 3.03401 20.656C3.37201 21.374 4.59001 21.53 5.08301 20.749C5.49301 20.1 6.52301 20.051 7.00801 20.658L7.56001 21.348C8.25601 22.218 9.71001 22.218 10.405 21.348L10.492 21.239C11.23 20.317 12.772 20.317 13.51 21.239L13.597 21.348C14.293 22.218 15.746 22.218 16.442 21.348" stroke="#CCCCCC" stroke-width="1.5" strokeLinejoin="round" strokeLinejoin="round"/>
<path d="M2.48297 9.5C1.89797 8.892 2.00797 8.109 2.00797 6.152C2.00797 4.195 2.00797 3.216 2.59397 2.608C3.17897 2 4.11997 2 6.00497 2H17.995C19.879 2 20.821 2 21.407 2.608C21.993 3.216 21.992 4.195 21.992 6.152C21.992 8.109 22.102 8.892 21.516 9.5M12 10H8.99997M14 14H7.99997" stroke="#CCCCCC" stroke-width="1.5" strokeLinejoin="round" strokeLinejoin="round"/>
</svg>
