<svg width="24" height="24" viewBox="0 0 24 24" fill="none" xmlns="http://www.w3.org/2000/svg">
<g clipPath="url(#clip0_324_467)">
<path d="M12 14.4997C13.3808 14.4997 14.5 13.3804 14.5 11.9997C14.5 10.619 13.3808 9.49967 12 9.49967C10.6193 9.49967 9.50004 10.619 9.50004 11.9997C9.50004 13.3804 10.6193 14.4997 12 14.4997Z" stroke="white" strokeWidth="1.2" strokeLinejoin="round" strokeLinejoin="round"/>
<path d="M18.1667 14.4997C18.0558 14.751 18.0227 15.0298 18.0717 15.3002C18.1207 15.5705 18.2496 15.8199 18.4417 16.0163L18.4917 16.0663C18.6467 16.2211 18.7696 16.4049 18.8535 16.6073C18.9373 16.8096 18.9805 17.0265 18.9805 17.2455C18.9805 17.4645 18.9373 17.6814 18.8535 17.8837C18.7696 18.0861 18.6467 18.2699 18.4917 18.4247C18.3369 18.5796 18.1531 18.7026 17.9508 18.7864C17.7484 18.8703 17.5316 18.9135 17.3125 18.9135C17.0935 18.9135 16.8766 18.8703 16.6743 18.7864C16.472 18.7026 16.2882 18.5796 16.1334 18.4247L16.0834 18.3747C15.887 18.1826 15.6375 18.0537 15.3672 18.0047C15.0969 17.9557 14.8181 17.9887 14.5667 18.0997C14.3202 18.2053 14.11 18.3807 13.962 18.6043C13.8139 18.8279 13.7344 19.0899 13.7334 19.358V19.4997C13.7334 19.9417 13.5578 20.3656 13.2452 20.6782C12.9327 20.9907 12.5087 21.1663 12.0667 21.1663C11.6247 21.1663 11.2008 20.9907 10.8882 20.6782C10.5756 20.3656 10.4 19.9417 10.4 19.4997V19.4247C10.3936 19.1488 10.3043 18.8813 10.1438 18.6569C9.98329 18.4325 9.75899 18.2616 9.50004 18.1663C9.24869 18.0554 8.96988 18.0223 8.69955 18.0713C8.42922 18.1204 8.17977 18.2492 7.98337 18.4413L7.93337 18.4913C7.77858 18.6463 7.59477 18.7692 7.39244 18.8531C7.19011 18.937 6.97323 18.9802 6.75421 18.9802C6.53518 18.9802 6.3183 18.937 6.11597 18.8531C5.91364 18.7692 5.72983 18.6463 5.57504 18.4913C5.42008 18.3366 5.29715 18.1527 5.21327 17.9504C5.1294 17.7481 5.08623 17.5312 5.08623 17.3122C5.08623 17.0931 5.1294 16.8763 5.21327 16.6739C5.29715 16.4716 5.42008 16.2878 5.57504 16.133L5.62504 16.083C5.81715 15.8866 5.94603 15.6372 5.99504 15.3668C6.04406 15.0965 6.01097 14.8177 5.90004 14.5663C5.7944 14.3199 5.619 14.1097 5.39543 13.9616C5.17185 13.8135 4.90986 13.7341 4.64171 13.733H4.50004C4.05801 13.733 3.63409 13.5574 3.32153 13.2449C3.00897 12.9323 2.83337 12.5084 2.83337 12.0663C2.83337 11.6243 3.00897 11.2004 3.32153 10.8878C3.63409 10.5753 4.05801 10.3997 4.50004 10.3997H4.57504C4.85087 10.3932 5.11838 10.3039 5.34279 10.1434C5.5672 9.98293 5.73814 9.75862 5.83337 9.49967C5.9443 9.24833 5.97739 8.96951 5.92838 8.69918C5.87936 8.42885 5.75049 8.17941 5.55837 7.98301L5.50837 7.93301C5.35341 7.77822 5.23048 7.5944 5.14661 7.39207C5.06273 7.18974 5.01956 6.97287 5.01956 6.75384C5.01956 6.53481 5.06273 6.31794 5.14661 6.11561C5.23048 5.91328 5.35341 5.72946 5.50837 5.57467C5.66316 5.41971 5.84698 5.29678 6.04931 5.21291C6.25164 5.12903 6.46851 5.08586 6.68754 5.08586C6.90657 5.08586 7.12344 5.12903 7.32577 5.21291C7.5281 5.29678 7.71192 5.41971 7.86671 5.57467L7.91671 5.62467C8.11311 5.81679 8.36255 5.94566 8.63288 5.99468C8.90321 6.04369 9.18203 6.0106 9.43337 5.89967H9.50004C9.74651 5.79404 9.95672 5.61864 10.1048 5.39506C10.2528 5.17149 10.3323 4.9095 10.3334 4.64134V4.49967C10.3334 4.05765 10.509 3.63372 10.8215 3.32116C11.1341 3.0086 11.558 2.83301 12 2.83301C12.4421 2.83301 12.866 3.0086 13.1786 3.32116C13.4911 3.63372 13.6667 4.05765 13.6667 4.49967V4.57467C13.6678 4.84283 13.7472 5.10482 13.8953 5.3284C14.0434 5.55197 14.2536 5.72737 14.5 5.83301C14.7514 5.94394 15.0302 5.97703 15.3005 5.92801C15.5709 5.879 15.8203 5.75012 16.0167 5.55801L16.0667 5.50801C16.2215 5.35305 16.4053 5.23012 16.6076 5.14624C16.81 5.06237 17.0268 5.0192 17.2459 5.0192C17.4649 5.0192 17.6818 5.06237 17.8841 5.14624C18.0864 5.23012 18.2702 5.35305 18.425 5.50801C18.58 5.6628 18.7029 5.84661 18.7868 6.04894C18.8707 6.25127 18.9139 6.46815 18.9139 6.68717C18.9139 6.9062 18.8707 7.12308 18.7868 7.32541C18.7029 7.52774 18.58 7.71155 18.425 7.86634L18.375 7.91634C18.1829 8.11274 18.0541 8.36219 18.005 8.63252C17.956 8.90285 17.9891 9.18166 18.1 9.43301V9.49967C18.2057 9.74615 18.3811 9.95635 18.6047 10.1044C18.8282 10.2525 19.0902 10.3319 19.3584 10.333H19.5C19.9421 10.333 20.366 10.5086 20.6785 10.8212C20.9911 11.1337 21.1667 11.5576 21.1667 11.9997C21.1667 12.4417 20.9911 12.8656 20.6785 13.1782C20.366 13.4907 19.9421 13.6663 19.5 13.6663H19.425C19.1569 13.6674 18.8949 13.7469 18.6713 13.8949C18.4477 14.043 18.2723 14.2532 18.1667 14.4997Z" stroke="white" strokeWidth="1.2" strokeLinejoin="round" strokeLinejoin="round"/>
</g>
<defs>
<clipPath id="clip0_324_467">
<rect width="20" height="20" fill="white" transform="translate(2 2)"/>
</clipPath>
</defs>
</svg>
