<svg width="40" height="40" viewBox="0 0 40 40" fill="none" xmlns="http://www.w3.org/2000/svg">
<circle cx="20.0001" cy="20" r="18.25" stroke="white" stroke-width="1.5"/>
<path d="M20.8333 20.645L25.48 25.2917C25.6356 25.4428 25.7133 25.6311 25.7133 25.8567C25.7133 26.0822 25.6356 26.2767 25.48 26.44C25.3178 26.6233 25.12 26.7094 24.8867 26.6983C24.6533 26.6872 24.455 26.6011 24.2917 26.44L19.57 21.7183C19.4256 21.5728 19.3222 21.4206 19.26 21.2617C19.1978 21.1028 19.1667 20.9378 19.1667 20.7667V14.0383C19.1667 13.8017 19.2467 13.6039 19.4067 13.445C19.5667 13.2861 19.765 13.2061 20.0017 13.205C20.2383 13.2039 20.4361 13.2839 20.595 13.445C20.7539 13.6061 20.8333 13.8039 20.8333 14.0383V20.645ZM20 10C19.7633 10 19.565 9.92 19.405 9.76C19.245 9.6 19.1656 9.40222 19.1667 9.16667V6.66667H20.8333V9.16667C20.8333 9.40333 20.7533 9.60111 20.5933 9.76C20.4333 9.91889 20.235 9.99889 19.9983 10M30 20C30 19.7633 30.08 19.565 30.24 19.405C30.4 19.245 30.5978 19.1656 30.8333 19.1667H33.3333V20.8333H30.8333C30.5967 20.8333 30.3989 20.7533 30.24 20.5933C30.0811 20.4333 30.0011 20.235 30 19.9983M20 30C20.2378 30 20.4361 30.08 20.595 30.24C20.7539 30.4 20.8333 30.5978 20.8333 30.8333V33.3333H19.1667V30.8333C19.1667 30.5967 19.2467 30.3989 19.4067 30.24C19.5667 30.0811 19.765 30.0011 20.0017 30M10 20C10 20.2378 9.92 20.4361 9.76 20.595C9.6 20.7539 9.40222 20.8333 9.16667 20.8333H6.66667V19.1667H9.16667C9.40333 19.1667 9.60111 19.2467 9.76 19.4067C9.91889 19.5667 9.99889 19.765 10 20.0017M20.005 35C17.9317 35 15.9817 34.6067 14.155 33.82C12.3294 33.0322 10.7411 31.9633 9.39 30.6133C8.03889 29.2633 6.96944 27.6767 6.18167 25.8533C5.39389 24.03 5 22.0806 5 20.005C5 17.9294 5.39389 15.9794 6.18167 14.155C6.96833 12.3294 8.03556 10.7411 9.38333 9.39C10.7311 8.03889 12.3183 6.96944 14.145 6.18167C15.9717 5.39389 17.9217 5 19.995 5C22.0683 5 24.0183 5.39389 25.845 6.18167C27.6706 6.96833 29.2589 8.03611 30.61 9.385C31.9611 10.7339 33.0306 12.3211 33.8183 14.1467C34.6061 15.9722 35 17.9217 35 19.995C35 22.0683 34.6067 24.0183 33.82 25.845C33.0333 27.6717 31.9644 29.26 30.6133 30.61C29.2622 31.96 27.6756 33.0294 25.8533 33.8183C24.0311 34.6072 22.0817 35.0011 20.005 35ZM33.3333 20C33.3333 16.2778 32.0417 13.125 29.4583 10.5417C26.875 7.95833 23.7222 6.66667 20 6.66667C16.2778 6.66667 13.125 7.95833 10.5417 10.5417C7.95833 13.125 6.66667 16.2778 6.66667 20C6.66667 23.7222 7.95833 26.875 10.5417 29.4583C13.125 32.0417 16.2778 33.3333 20 33.3333C23.7222 33.3333 26.875 32.0417 29.4583 29.4583C32.0417 26.875 33.3333 23.7222 33.3333 20Z" fill="white"/>
<path d="M20 10C19.7633 10 19.565 9.92 19.405 9.76C19.245 9.6 19.1656 9.40222 19.1667 9.16667V6.66667H20.8333V9.16667C20.8333 9.40333 20.7533 9.60111 20.5933 9.76C20.4333 9.91889 20.235 9.99889 19.9983 10M30 20C30 19.7633 30.08 19.565 30.24 19.405C30.4 19.245 30.5978 19.1656 30.8333 19.1667H33.3333V20.8333H30.8333C30.5967 20.8333 30.3989 20.7533 30.24 20.5933C30.0811 20.4333 30.0011 20.235 30 19.9983M20 30C20.2378 30 20.4361 30.08 20.595 30.24C20.7539 30.4 20.8333 30.5978 20.8333 30.8333V33.3333H19.1667V30.8333C19.1667 30.5967 19.2467 30.3989 19.4067 30.24C19.5667 30.0811 19.765 30.0011 20.0017 30M10 20C10 20.2378 9.92 20.4361 9.76 20.595C9.6 20.7539 9.40222 20.8333 9.16667 20.8333H6.66667V19.1667H9.16667C9.40333 19.1667 9.60111 19.2467 9.76 19.4067C9.91889 19.5667 9.99889 19.765 10 20.0017M20.8333 20.645L25.48 25.2917C25.6356 25.4428 25.7133 25.6311 25.7133 25.8567C25.7133 26.0822 25.6356 26.2767 25.48 26.44C25.3178 26.6233 25.12 26.7094 24.8867 26.6983C24.6533 26.6872 24.455 26.6011 24.2917 26.44L19.57 21.7183C19.4256 21.5728 19.3222 21.4206 19.26 21.2617C19.1978 21.1028 19.1667 20.9378 19.1667 20.7667V14.0383C19.1667 13.8017 19.2467 13.6039 19.4067 13.445C19.5667 13.2861 19.765 13.2061 20.0017 13.205C20.2383 13.2039 20.4361 13.2839 20.595 13.445C20.7539 13.6061 20.8333 13.8039 20.8333 14.0383V20.645ZM20.005 35C17.9317 35 15.9817 34.6067 14.155 33.82C12.3294 33.0322 10.7411 31.9633 9.39 30.6133C8.03889 29.2633 6.96944 27.6767 6.18167 25.8533C5.39389 24.03 5 22.0806 5 20.005C5 17.9294 5.39389 15.9794 6.18167 14.155C6.96833 12.3294 8.03556 10.7411 9.38333 9.39C10.7311 8.03889 12.3183 6.96944 14.145 6.18167C15.9717 5.39389 17.9217 5 19.995 5C22.0683 5 24.0183 5.39389 25.845 6.18167C27.6706 6.96833 29.2589 8.03611 30.61 9.385C31.9611 10.7339 33.0306 12.3211 33.8183 14.1467C34.6061 15.9722 35 17.9217 35 19.995C35 22.0683 34.6067 24.0183 33.82 25.845C33.0333 27.6717 31.9644 29.26 30.6133 30.61C29.2622 31.96 27.6756 33.0294 25.8533 33.8183C24.0311 34.6072 22.0817 35.0011 20.005 35ZM33.3333 20C33.3333 16.2778 32.0417 13.125 29.4583 10.5417C26.875 7.95833 23.7222 6.66667 20 6.66667C16.2778 6.66667 13.125 7.95833 10.5417 10.5417C7.95833 13.125 6.66667 16.2778 6.66667 20C6.66667 23.7222 7.95833 26.875 10.5417 29.4583C13.125 32.0417 16.2778 33.3333 20 33.3333C23.7222 33.3333 26.875 32.0417 29.4583 29.4583C32.0417 26.875 33.3333 23.7222 33.3333 20Z" stroke="white" stroke-width="0.416667"/>
</svg>
